HIERARCHY
ROOT Hips
{
	OFFSET -0.001795 -0.223333 0.028219
	CHANNELS 6 Xposition Yposition Zposition Zrotation Yrotation Xrotation 
	JOINT LeftUpLeg
	{
		OFFSET 0.069520 -0.091406 -0.006815
		CHANNELS 3 Zrotation Yrotation Xrotation
		JOINT LeftLeg
		{
			OFFSET 0.034277 -0.375199 -0.004496
			CHANNELS 3 Zrotation Yrotation Xrotation
			JOINT LeftFoot
			{
				OFFSET -0.013596 -0.397961 -0.043693
				CHANNELS 3 Zrotation Yrotation Xrotation
				JOINT LeftToe
				{
					OFFSET 0.026358 -0.055791 0.119288
					CHANNELS 3 Zrotation Yrotation Xrotation
					End Site
					{
						OFFSET 0.000000 0.000000 0.000000
					}
				}
			}
		}
	}
	JOINT RightUpLeg
	{
		OFFSET -0.067670 -0.090522 -0.004320
		CHANNELS 3 Zrotation Yrotation Xrotation
		JOINT RightLeg
		{
			OFFSET -0.038290 -0.382569 -0.008850
			CHANNELS 3 Zrotation Yrotation Xrotation
			JOINT RightFoot
			{
				OFFSET 0.015774 -0.398415 -0.042312
				CHANNELS 3 Zrotation Yrotation Xrotation
				JOINT RightToe
				{
					OFFSET -0.025372 -0.048144 0.123348
					CHANNELS 3 Zrotation Yrotation Xrotation
					End Site
					{
						OFFSET 0.000000 0.000000 0.000000
					}
				}
			}
		}
	}
	JOINT Spine
	{
		OFFSET -0.002533 0.108963 -0.026696
		CHANNELS 3 Zrotation Yrotation Xrotation
		JOINT Spine1
		{
			OFFSET 0.005487 0.135180 0.001092
			CHANNELS 3 Zrotation Yrotation Xrotation
			JOINT Spine2
			{
				OFFSET 0.001457 0.052922 0.025425
				CHANNELS 3 Zrotation Yrotation Xrotation
				JOINT Neck
				{
					OFFSET -0.002778 0.213870 -0.042857
					CHANNELS 3 Zrotation Yrotation Xrotation
					JOINT Head
					{
						OFFSET 0.005152 0.064970 0.051349
						CHANNELS 3 Zrotation Yrotation Xrotation
						End Site
						{
							OFFSET 0.000000 0.000000 0.000000
						}
					}
				}
				JOINT LeftShoulder
				{
					OFFSET 0.078845 0.121749 -0.034090
					CHANNELS 3 Zrotation Yrotation Xrotation
					JOINT LeftArm
					{
						OFFSET 0.090977 0.030469 -0.008868
						CHANNELS 3 Zrotation Yrotation Xrotation
						JOINT LeftForeArm
						{
							OFFSET 0.259612 -0.012772 -0.027456
							CHANNELS 3 Zrotation Yrotation Xrotation
							JOINT LeftHand
							{
								OFFSET 0.249234 0.008986 -0.001171
								CHANNELS 3 Zrotation Yrotation Xrotation
								End Site
								{
									OFFSET 0.000000 0.000000 0.000000
								}
							}
						}
					}
				}
				JOINT RightShoulder
				{
					OFFSET -0.081759 0.118833 -0.038615
					CHANNELS 3 Zrotation Yrotation Xrotation
					JOINT RightArm
					{
						OFFSET -0.096012 0.032551 -0.009143
						CHANNELS 3 Zrotation Yrotation Xrotation
						JOINT RightForeArm
						{
							OFFSET -0.253742 -0.013329 -0.021401
							CHANNELS 3 Zrotation Yrotation Xrotation
							JOINT RightHand
							{
								OFFSET -0.255298 0.007772 -0.005559
								CHANNELS 3 Zrotation Yrotation Xrotation
								End Site
								{
									OFFSET 0.000000 0.000000 0.000000
								}
							}
						}
					}
				}
			}
		}
	}
}
MOTION
Frames: 9
Frame Time: 0.050000
0.000000 0.933895 0.000000 0.656773 -5.444009 -2.563539 0.998523 -1.457250 -19.269872 -2.450006 0.253561 8.247540 5.343027 12.300349 9.062113 0.000000 0.000000 0.000000 3.098523 -1.511113 12.440890 -0.934990 0.330329 4.620990 -2.159600 -2.347718 -5.682902 0.000000 0.000000 0.000000 1.042895 -0.427294 9.499042 -3.158323 1.560453 1.140373 1.518670 6.683161 3.295050 3.158178 -0.309534 -16.672901 0.000000 0.000000 0.000000 -22.943210 -2.674409 -1.896385 -47.211707 -3.433296 -3.883044 -12.066090 -23.069026 3.118964 0.000000 0.000000 0.000000 19.107092 4.224074 1.377609 50.747651 14.690841 1.060112 6.402817 28.753567 2.698971 0.000000 0.000000 0.000000 
0.006195 0.929295 0.040076 0.424150 -5.362698 -2.707970 -0.448890 -1.635910 -18.307794 0.332760 -0.146626 3.215396 2.890211 8.448641 10.721240 0.000000 0.000000 0.000000 3.051780 -1.733866 14.542451 -1.731157 0.599675 7.123327 -1.520919 -1.100824 -4.792560 0.000000 0.000000 0.000000 0.390694 -0.410086 10.572084 -3.283798 1.555290 -1.516924 3.119614 6.843792 4.450410 0.984615 1.252118 -20.160106 0.000000 0.000000 0.000000 -23.826302 -0.799324 -2.986049 -47.053340 -2.759222 -4.229297 -13.559730 -21.973288 3.274479 0.000000 0.000000 0.000000 16.990174 4.258295 1.392844 53.134663 16.002737 1.754805 6.260862 29.403032 2.746889 0.000000 0.000000 0.000000 
0.014130 0.927116 0.084053 0.885744 -6.166906 -3.608345 -2.793663 -1.867727 -16.839479 1.295252 -0.432514 7.091352 4.329722 10.682771 10.263997 0.000000 0.000000 0.000000 1.189080 -1.615800 16.869195 -1.303061 0.763999 10.706554 -0.849284 0.275302 -3.952899 0.000000 0.000000 0.000000 -0.288008 -0.329871 10.218918 -3.309207 1.553069 -2.013319 2.315134 7.940357 6.103546 1.933703 0.645375 -18.272840 0.000000 0.000000 0.000000 -22.946704 -2.002708 -2.364173 -47.484431 -3.120876 -4.237506 -11.360087 -18.702468 2.405921 0.000000 0.000000 0.000000 18.693785 4.473706 1.767454 51.365069 18.389028 2.392687 5.096450 29.548359 2.552927 0.000000 0.000000 0.000000 
0.023282 0.927310 0.131141 0.859025 -5.070166 -4.789825 -4.200810 -1.680485 -13.124005 0.704394 -0.349435 7.638363 3.981475 10.371555 11.197209 0.000000 0.000000 0.000000 -0.425284 -1.406783 17.146827 -0.002384 0.902229 17.775932 -0.657782 -1.046732 -1.083367 0.000000 0.000000 0.000000 -1.121507 -0.273620 10.271534 -3.097360 1.489772 -0.915947 3.012107 7.111200 6.170333 0.886429 1.122293 -17.129801 0.000000 0.000000 0.000000 -23.865210 -2.028061 -2.367431 -47.025868 -3.768118 -3.966389 -9.740745 -17.999106 2.074131 0.000000 0.000000 0.000000 18.389998 5.265500 2.086715 50.526066 17.934839 2.133393 6.338548 30.588020 2.940834 0.000000 0.000000 0.000000 
0.032760 0.932230 0.177907 1.386468 -4.343503 -5.580235 -6.182724 -1.441508 -9.574055 0.916424 -0.415141 8.225893 4.129013 10.428120 9.490283 0.000000 0.000000 0.000000 -3.050035 -0.802554 13.740799 2.024500 0.911803 29.526723 0.955810 -0.509632 5.041448 0.000000 0.000000 0.000000 -2.347811 -0.182423 10.154314 -2.479590 1.204993 -0.346336 2.996929 7.061131 5.664481 0.981318 1.056304 -16.700928 0.000000 0.000000 0.000000 -24.219028 -2.388848 -2.317595 -46.331419 -3.951276 -3.752565 -9.772492 -17.746644 2.034546 0.000000 0.000000 0.000000 17.813965 4.823600 1.876114 50.859199 16.528199 1.614967 5.745122 32.438904 3.002404 0.000000 0.000000 0.000000 
0.040953 0.935676 0.220361 1.674529 -2.951913 -6.442503 -7.291244 -0.965101 -5.742949 0.732104 -0.374113 7.696581 3.399985 8.883380 7.291096 0.000000 0.000000 0.000000 -4.535849 -0.385573 8.206762 3.809843 0.576179 42.689412 1.763574 -1.186125 10.266101 0.000000 0.000000 0.000000 -2.497509 -0.203901 11.262286 -2.141454 1.041319 -1.188072 2.774600 5.171781 6.110685 0.990372 0.982220 -17.460301 0.000000 0.000000 0.000000 -24.366285 -3.402337 -1.327821 -46.131055 -4.982688 -3.532899 -9.454226 -18.980535 2.174271 0.000000 0.000000 0.000000 17.558571 5.439535 1.919448 50.817749 15.590581 1.217282 6.906186 33.834412 3.390163 0.000000 0.000000 0.000000 
0.047466 0.937392 0.259270 1.196877 -1.667268 -6.839471 -7.597169 -0.424695 -2.241706 1.124108 -0.439536 7.253342 2.507001 6.800804 5.020043 0.000000 0.000000 0.000000 -5.052118 -0.071885 2.166512 5.203573 -0.265458 51.595277 -1.276894 -7.351760 11.179187 0.000000 0.000000 0.000000 -1.937036 -0.282804 11.820596 -1.576415 0.779674 -1.402479 1.726854 3.746039 6.381293 1.451475 0.706997 -18.223988 0.000000 0.000000 0.000000 -24.124487 -3.225101 -1.218330 -45.006824 -7.147907 -2.750592 -10.169569 -19.928933 2.426924 0.000000 0.000000 0.000000 17.803521 5.217843 1.680846 51.666794 14.754089 0.891534 6.256014 34.456614 3.236963 0.000000 0.000000 0.000000 
0.052661 0.939451 0.296788 0.866443 -0.467421 -7.360137 -7.933819 0.111075 1.132276 1.685384 -0.531013 6.890545 2.320308 5.886742 2.940923 0.000000 0.000000 0.000000 -4.679022 0.217469 -3.404306 5.680647 -0.925721 55.533747 -3.466694 -10.670992 7.620119 0.000000 0.000000 0.000000 -1.288592 -0.370189 12.245654 -1.447418 0.724561 -1.068685 1.262096 2.427296 6.482450 1.118561 0.905451 -19.151007 0.000000 0.000000 0.000000 -24.047232 -4.335682 -0.366616 -44.790580 -9.451031 -1.986106 -8.811345 -21.633042 2.408266 0.000000 0.000000 0.000000 18.358612 5.073720 1.455873 51.978178 14.083261 0.609797 4.669967 34.211901 2.700766 0.000000 0.000000 0.000000 
0.056998 0.940270 0.333951 0.108854 0.987988 -7.883045 -7.807245 0.654754 4.567772 2.698560 -0.698747 6.624698 1.915340 4.207595 0.409445 0.000000 0.000000 0.000000 -3.504915 0.601209 -8.752847 5.777884 -1.519478 54.892965 -5.329774 -14.154326 6.178272 0.000000 0.000000 0.000000 -0.610976 -0.465689 12.570738 -0.660324 0.361008 -1.343985 0.532376 1.126301 7.154856 1.071730 0.909876 -19.535035 0.000000 0.000000 0.000000 -23.544667 -4.971997 0.189096 -45.503508 -12.358766 -1.048778 -7.481665 -23.142952 2.336852 0.000000 0.000000 0.000000 18.540706 4.803779 1.238722 52.883856 12.536875 -0.100000 3.855806 33.908751 2.426307 0.000000 0.000000 0.000000 
